<svg width="67" height="67" viewBox="0 0 67 67" fill="none" xmlns="http://www.w3.org/2000/svg">
<path d="M8.1002 21.4269V27.0957C7.55348 26.955 6.89715 26.9073 6.30219 26.9073C2.47113 26.9073 0 29.3095 0 33.0106C0 36.8537 2.32902 38.852 6.8073 38.8573C8.30274 38.8573 9.68801 38.7204 11.5654 38.3653V21.4269H8.1002ZM13.7298 21.4452V25.1695H17.3964V21.4452H13.7298ZM13.7298 26.8V34.3244C13.7298 37.4841 13.5654 38.6865 13.0414 39.7236C12.5416 40.738 11.7577 41.4006 10.139 42.1524L13.5413 43.7567C15.16 42.9514 15.943 42.224 16.538 41.0689C17.1745 39.8682 17.3912 38.4751 17.3912 35.578V26.8H13.7298ZM61.059 26.8C57.2949 26.8 54.9467 29.1609 54.94 32.9477C54.94 36.5952 57.2154 38.86 60.9098 38.86C64.6511 38.86 67 36.5024 67 32.7384C67 29.0668 64.748 26.8 61.059 26.8ZM24.2325 26.9073C22.6111 26.9073 21.127 27.2391 19.5739 27.9882L19.5792 30.7859C20.9513 30.0583 22.4119 29.6815 23.7117 29.6815C24.5988 29.6815 24.9209 29.92 24.9209 30.5766V31.3722C20.6061 31.7447 18.849 32.9197 18.849 35.4576C18.849 37.804 20.1722 38.86 23.1202 38.86C24.5782 38.86 26.5655 38.6927 28.14 38.4595V31.1131C28.14 29.6096 28.0448 28.9051 27.75 28.365C27.2248 27.4002 26.0389 26.9073 24.2325 26.9073ZM36.0701 26.9073C34.2638 26.9073 32.4803 27.1636 30.3149 27.7291V38.7134H33.9763V30.0872C34.7133 29.8728 35.1633 29.8281 35.6644 29.8281C36.9709 29.8281 37.5828 30.3463 37.5828 31.7386V38.7134H41.116V31.5947C41.116 29.7816 40.8734 28.9315 40.1136 28.1557C39.307 27.3329 37.9474 26.9073 36.0701 26.9073ZM50.6321 26.9282C45.2815 26.9282 42.2571 29.2576 42.2571 33.3848C42.2571 36.708 44.2991 38.8076 47.5124 38.8076C48.4611 38.8076 49.1786 38.6641 49.8914 38.313V38.381C49.8914 40.6898 48.8668 41.6577 46.4655 41.6577C45.1054 41.6577 43.8221 41.3539 42.5398 40.6946H42.5372V44.0472C43.8209 44.543 45.0567 44.7539 46.4865 44.7539C49.2951 44.7539 51.2727 43.8792 52.4144 42.1131C53.197 40.9085 53.4613 39.4472 53.4613 36.3344V35.3451C53.4372 34.8493 53.4383 34.3543 53.4142 33.8585L53.3906 31.8773L53.3435 30.3436V29.9641C54.0792 30.0338 53.1846 29.876 54.1601 30.0636L55.4163 27.4464C53.6569 27.0913 52.2039 26.9282 50.6321 26.9282ZM61.0066 29.692C62.4217 29.692 63.2339 30.859 63.2339 32.8247C63.2339 34.8133 62.3995 35.9601 60.9831 35.9601C59.5479 35.9601 58.7035 34.8133 58.7035 32.8247C58.7035 30.8362 59.542 29.692 61.0066 29.692ZM6.66074 29.8281C7.11286 29.8281 7.66909 29.8764 8.09758 30.0165V35.8423C7.57364 35.912 7.04321 35.9366 6.63719 35.9366C4.75985 35.9366 3.73473 34.8695 3.73473 32.9399C3.73473 30.958 4.80618 29.8281 6.66074 29.8281ZM49.4387 29.8516H49.703H49.8208V30.1316L49.8443 31.3329L49.8679 33.0079C49.8679 33.5024 49.8914 33.9755 49.8914 34.4003V35.3896V35.6539C49.4198 35.7946 49.0146 35.8868 48.5148 35.8868C46.8961 35.8868 45.9892 34.8471 45.9892 33.0341C45.9892 31.7624 46.4411 30.8656 47.3188 30.3698C47.8896 30.0147 48.7258 29.8288 49.4387 29.8516ZM25.0805 33.7381V36.159C24.3971 36.2756 23.9151 36.3239 23.3898 36.3239C22.429 36.3239 21.9948 35.9936 21.9948 35.2901C21.9948 34.3508 22.7529 33.9713 25.0805 33.7381Z" fill="white"/>
</svg>
