<svg width="30" height="30" viewBox="0 0 30 30" fill="none" xmlns="http://www.w3.org/2000/svg">
<path d="M14.9981 0C6.71616 0 0 6.88577 0 15.3802C0 22.1742 4.29764 27.9377 10.26 29.9731C11.01 30.1153 11.2838 29.6404 11.2838 29.2325C11.2838 28.8667 11.2709 27.8996 11.2631 26.6165C7.09128 27.5454 6.21021 24.5543 6.21021 24.5543C5.5295 22.7771 4.54496 22.3043 4.54496 22.3043C3.18177 21.3508 4.64636 21.3701 4.64636 21.3701C6.15187 21.479 6.9431 22.9554 6.9431 22.9554C8.28183 25.3049 10.4552 24.6269 11.3101 24.2326C11.445 23.2388 11.833 22.5611 12.2628 22.1762C8.9325 21.7874 5.42986 20.4679 5.42986 14.576C5.42986 12.8966 6.01514 11.5239 6.97485 10.4475C6.81926 10.0588 6.30558 8.49419 7.12126 6.37821C7.12126 6.37821 8.38141 5.9649 11.2461 7.95423C12.4425 7.61327 13.725 7.44315 15.0018 7.43739C16.2749 7.44526 17.559 7.61327 18.7573 7.95634C21.6207 5.9667 22.8787 6.38032 22.8787 6.38032C23.6961 8.49822 23.1825 10.0609 23.0288 10.4493C23.9905 11.5257 24.57 12.8984 24.57 14.5781C24.57 20.4853 21.0638 21.7854 17.7227 22.1663C18.2607 22.6415 18.7405 23.5794 18.7405 25.0137C18.7405 27.0706 18.7219 28.7287 18.7219 29.2325C18.7219 29.644 18.9917 30.1227 19.753 29.9714C25.7062 27.9337 30 22.1723 30 15.3802C30.0001 6.88571 23.2839 0 14.9981 0Z" fill="#6879D9"/>
</svg>
