<svg id="Слой_1" data-name="Слой 1" xmlns="http://www.w3.org/2000/svg" xmlns:xlink="http://www.w3.org/1999/xlink" viewBox="0 0 283.46 283.46"><defs><style>.cls-1{fill:url(#Безымянный_градиент_65);}</style><linearGradient id="Безымянный_градиент_65" x1="62.97" y1="128.46" x2="226.72" y2="128.46" gradientUnits="userSpaceOnUse"><stop offset="0" stop-color="#aecabe"/><stop offset="1" stop-color="#d7d9cc"/></linearGradient></defs><title>Лого</title><path class="cls-1" d="M166.09,69.56c-3.75,9-12,14.9-12,24.38,0,12.28,13.8,18.45,13.8,33.38h0a23,23,0,1,1-46,0h-.06c0-14.93,13.81-21.1,13.81-33.38,0-9.48-8.23-15.33-12-24.37l0-.06q-.37-.9-.69-1.86c0-.14-.08-.28-.13-.41-.18-.61-.34-1.23-.47-1.86,0-.12-.05-.23-.08-.35-.13-.66-.23-1.33-.3-2l0-.26c-.06-.71-.11-1.44-.11-2.19a23.07,23.07,0,1,1,46.14,0c0,.75,0,1.48-.11,2.19,0,.08,0,.17,0,.26-.07.69-.18,1.36-.31,2,0,.12-.05.23-.07.35-.14.63-.29,1.25-.48,1.86,0,.13-.08.27-.13.41-.2.64-.43,1.26-.68,1.86Zm37.56,48.59a23.07,23.07,0,1,0-23.07-23.07A23.07,23.07,0,0,0,203.65,118.15Zm0,21.15a23.07,23.07,0,1,0,23.07,23.07A23.07,23.07,0,0,0,203.65,139.3Zm-47.77,36.8h0c-12.92-7.46-25.17,1.41-35.81-4.73-7.55-4.36-9-13.21-13.77-20.65-4-7.89-11-13.53-11-22.25,0-9.48,8.23-15.33,12-24.38l0,0c.25-.6.47-1.22.68-1.86,0-.14.09-.28.13-.42.18-.6.34-1.22.48-1.85,0-.12.05-.23.07-.35.13-.66.23-1.33.31-2,0-.09,0-.18,0-.27.07-.71.11-1.43.11-2.18a23.07,23.07,0,1,0-46.14,0c0,.75,0,1.47.11,2.18,0,.09,0,.18,0,.27.08.69.18,1.36.31,2,0,.12.05.23.07.35.14.63.3,1.25.48,1.85,0,.14.09.28.13.42.21.64.43,1.26.68,1.86l0,0c3.75,9,12,14.9,12,24.38,0,12.28-13.81,18.45-13.81,33.38h0c0,.18,0,.35,0,.53a23.06,23.06,0,0,0,12,20.27l0,0c12.92,7.46,25.18-1.4,35.81,4.74s9.08,21.18,22,28.64l0,0a23.06,23.06,0,1,0,23-39.93Z"/></svg>