<svg width="67" height="67" viewBox="0 0 67 67" fill="none" xmlns="http://www.w3.org/2000/svg">
<path d="M33.5657 6.97923C31.3952 6.98621 29.8905 7.17744 28.0717 7.4915C22.7005 8.42671 21.7221 10.3906 21.7221 14.01V19.5417H34.2846V22.3334H21.2447H15.1728C11.4934 22.3334 8.2732 24.067 7.25284 28.2224C6.09989 32.992 6.04824 35.9791 7.25284 40.9594C8.16711 44.6737 10.1813 47.4584 13.8621 47.4584H18.9318V40.3341C18.9318 36.194 22.681 32.1042 26.9774 32.1042H37.0776C40.5993 32.1042 44.0568 29.5052 44.0568 25.9947V14.01C44.0568 10.6056 41.6015 8.0596 38.1692 7.48871C38.2543 7.48033 35.7181 6.97085 33.5657 6.97923ZM26.6089 12.5626C27.7548 12.5626 28.7026 13.5075 28.7026 14.6591C28.7026 15.8218 27.7548 16.7501 26.6089 16.7501C25.4405 16.7501 24.5151 15.8232 24.5151 14.6591C24.5151 13.5117 25.4405 12.5626 26.6089 12.5626Z" fill="#0277BD"/>
<path d="M32.2133 60.0208C34.3838 60.0138 35.8885 59.8226 37.7073 59.5085C43.0784 58.5733 44.0569 56.6094 44.0569 52.99V47.4583H31.4944V44.6666H44.5357H50.6075C54.287 44.6666 57.5071 42.933 58.5275 38.7776C59.6805 34.008 59.7321 31.021 58.5275 26.0406C57.6118 22.3263 55.5976 19.5416 51.9168 19.5416H46.8472V26.666C46.8472 30.806 43.098 34.8958 38.8016 34.8958H28.7013C25.1796 34.8958 21.7222 37.4948 21.7222 41.0054V52.99C21.7222 56.3944 24.1774 58.9404 27.6098 59.5113C27.5246 59.5197 30.0609 60.0292 32.2133 60.0208ZM39.1715 54.4375C38.0255 54.4375 37.0777 53.4925 37.0777 52.3409C37.0777 51.1782 38.0255 50.25 39.1715 50.25C40.3398 50.25 41.2652 51.1768 41.2652 52.3409C41.2652 53.4883 40.3384 54.4375 39.1715 54.4375Z" fill="#FFC107"/>
</svg>
