<svg width="67" height="67" viewBox="0 0 67 67" fill="none" xmlns="http://www.w3.org/2000/svg">
<path d="M36.2915 23.7292H25.1248C19.7285 23.7292 15.354 19.3546 15.354 13.9583C15.354 8.56204 19.7285 4.1875 25.1248 4.1875H36.2915V23.7292Z" fill="url(#paint0_linear_7_388)"/>
<path d="M34.8957 43.2708H25.1248C19.7285 43.2708 15.354 38.8962 15.354 33.5C15.354 28.1037 19.7285 23.7291 25.1248 23.7291H34.8957V43.2708Z" fill="url(#paint1_linear_7_388)"/>
<path d="M25.1248 62.8125C19.7285 62.8125 15.354 58.438 15.354 53.0417C15.354 47.6454 19.7285 43.2709 25.1248 43.2709H34.8957V53.0417C34.8957 58.438 30.5211 62.8125 25.1248 62.8125Z" fill="url(#paint2_linear_7_388)"/>
<path d="M44.6668 23.7292H34.896V4.1875H44.6668C50.0631 4.1875 54.4377 8.56204 54.4377 13.9583C54.4377 19.3546 50.0631 23.7292 44.6668 23.7292Z" fill="url(#paint3_linear_7_388)"/>
<path d="M44.6668 43.2708C50.0631 43.2708 54.4377 38.8962 54.4377 33.5C54.4377 28.1037 50.0631 23.7291 44.6668 23.7291C39.2705 23.7291 34.896 28.1037 34.896 33.5C34.896 38.8962 39.2705 43.2708 44.6668 43.2708Z" fill="url(#paint4_linear_7_388)"/>
<defs>
<linearGradient id="paint0_linear_7_388" x1="22.7645" y1="1.53681" x2="32.1361" y2="27.283" gradientUnits="userSpaceOnUse">
<stop stop-color="#F44F5A"/>
<stop offset="0.443" stop-color="#EE3D4A"/>
<stop offset="1" stop-color="#E52030"/>
</linearGradient>
<linearGradient id="paint1_linear_7_388" x1="21.8307" y1="20.4294" x2="31.1465" y2="46.022" gradientUnits="userSpaceOnUse">
<stop stop-color="#AE4CD5"/>
<stop offset="1" stop-color="#9331BF"/>
</linearGradient>
<linearGradient id="paint2_linear_7_388" x1="20.6721" y1="36.79" x2="30.4583" y2="63.6738" gradientUnits="userSpaceOnUse">
<stop stop-color="#33C481"/>
<stop offset="1" stop-color="#21A366"/>
</linearGradient>
<linearGradient id="paint3_linear_7_388" x1="38.3828" y1="0.714667" x2="47.6246" y2="26.1049" gradientUnits="userSpaceOnUse">
<stop stop-color="#F09CA2"/>
<stop offset="1" stop-color="#EB6773"/>
</linearGradient>
<linearGradient id="paint4_linear_7_388" x1="40.0801" y1="20.8984" x2="48.6547" y2="44.4573" gradientUnits="userSpaceOnUse">
<stop stop-color="#32BDEF"/>
<stop offset="1" stop-color="#1EA2E4"/>
</linearGradient>
</defs>
</svg>
