<svg width="67" height="67" viewBox="0 0 67 67" fill="none" xmlns="http://www.w3.org/2000/svg">
<path d="M8.375 13.9583C8.375 10.8749 10.8749 8.375 13.9583 8.375H53.0417C56.1251 8.375 58.625 10.8749 58.625 13.9583V53.0417C58.625 56.1251 56.1251 58.625 53.0417 58.625H13.9583C10.8749 58.625 8.375 56.1251 8.375 53.0417V13.9583Z" fill="#03A9F4"/>
<path d="M27.939 26.7637H25.1445V32.9528H27.8985C28.662 32.9528 29.2525 32.7029 29.6712 32.2032C30.09 31.7035 30.2979 30.9763 30.2979 30.0215C30.2979 29.0305 30.0844 28.2433 29.6573 27.657C29.2301 27.0708 28.6564 26.7734 27.939 26.7637Z" fill="#020F16"/>
<path d="M12.5625 12.5625V54.4375H54.4375V12.5625H12.5625ZM32.6136 34.6013C31.4607 35.7291 29.8611 36.2917 27.8162 36.2917H25.1445V43.2708H21.1371V23.4235H27.8985C29.8611 23.4235 31.4272 24.0335 32.5941 25.2506C33.761 26.4678 34.3459 28.0493 34.3459 29.9937C34.3459 31.9381 33.768 33.4735 32.6136 34.6013ZM45.6186 42.344C44.629 43.1438 43.3281 43.543 41.7201 43.543C40.6383 43.543 39.6835 43.3322 38.8572 42.9093C38.0309 42.4864 37.3818 41.8973 36.9142 41.1436C36.4466 40.3898 36.2121 39.5761 36.2121 38.7037H39.879C39.8985 39.3751 40.0534 39.8804 40.3494 40.2167C40.6453 40.5531 41.1282 40.7206 41.801 40.7206C42.8367 40.7206 43.3546 40.253 43.3546 39.3164C43.3546 38.9898 43.1982 38.6869 42.8842 38.4105C42.5701 38.1342 41.875 37.7601 40.7932 37.2869C39.2034 36.642 38.1104 35.9748 37.5144 35.2825C36.9184 34.5901 36.6211 33.7331 36.6211 32.7058C36.6211 31.4146 37.0873 30.3496 38.0183 29.5093C38.9493 28.669 40.1846 28.2489 41.7187 28.2489C43.335 28.2489 44.6304 28.6676 45.6033 29.5023C46.5762 30.337 47.0619 31.4607 47.0619 32.8691H43.2038C43.2038 31.6701 42.7055 31.0699 41.7047 31.0699C41.2957 31.0699 40.9607 31.1969 40.6955 31.4509C40.4303 31.705 40.3005 32.0609 40.3005 32.5145C40.3005 32.8412 40.4457 33.1301 40.7374 33.38C41.0291 33.6298 41.7131 33.9871 42.7962 34.4506C44.3694 35.0326 45.479 35.6803 46.1295 36.3936C46.78 37.1068 47.1038 38.0323 47.1038 39.1671C47.1038 40.4861 46.6083 41.5442 45.6186 42.344Z" fill="#020F16"/>
</svg>
