<svg width="67" height="67" viewBox="0 0 67 67" fill="none" xmlns="http://www.w3.org/2000/svg">
<path d="M58.625 51.6458C58.625 55.5011 55.5011 58.625 51.6458 58.625H15.3542C11.5003 58.625 8.375 55.5011 8.375 51.6458V15.3542C8.375 11.4989 11.5003 8.375 15.3542 8.375H51.6458C55.5011 8.375 58.625 11.4989 58.625 15.3542V51.6458Z" fill="#673AB7"/>
<path d="M46.1044 35.7333C45.1971 34.4771 43.885 33.6117 42.196 33.151C42.196 33.151 43.6198 32.6346 44.904 30.7083C45.6717 29.48 46.0625 28.0004 46.0625 26.2696C46.0625 23.2685 44.9737 20.9654 42.7962 19.3881C40.6187 17.8108 38.1621 16.75 33.9885 16.75H20.9375V50.25H35.496C39.4462 50.2221 42.4194 49.3706 44.4433 47.7375C46.4533 46.0765 47.4583 43.6198 47.4583 40.3396C47.4583 38.525 47.0117 36.9896 46.1044 35.7333ZM29.3125 22.3333C29.3125 22.3333 35.1331 22.3333 35.2448 22.3333C37.3665 22.3333 39.0833 24.0502 39.0833 26.1719C39.0833 28.2935 37.3665 30.0104 35.2448 30.0104C35.1331 30.0104 29.3125 30.0104 29.3125 30.0104V22.3333ZM36.2917 44.6667H29.3125V36.2917H36.2917C38.6087 36.2917 40.4792 38.1621 40.4792 40.4792C40.4792 42.7963 38.6087 44.6667 36.2917 44.6667Z" fill="white"/>
</svg>
