<svg width="30" height="30" viewBox="0 0 30 30" fill="none" xmlns="http://www.w3.org/2000/svg">
<g clip-path="url(#clip0_398_616)">
<path d="M15 30C23.2843 30 30 23.2843 30 15C30 6.71573 23.2843 0 15 0C6.71573 0 0 6.71573 0 15C0 23.2843 6.71573 30 15 30Z" fill="#4176FA"/>
<path d="M20.3766 12.3911C16.0441 12.3911 16.0385 16.7073 16.0385 16.7295C16.0385 16.7295 15.7417 21.0511 20.3766 21.0511C20.3766 21.0511 24.242 21.2709 24.242 18.0435H22.2571C22.2571 18.0435 22.3229 19.2585 20.4426 19.2585C20.4426 19.2585 18.4578 19.3906 18.4578 17.2956H24.308C24.308 17.2956 24.9513 12.3911 20.3766 12.3911ZM18.4356 15.7835C18.4356 15.7835 18.6776 14.046 20.4207 14.046C22.1692 14.046 22.1416 15.7835 22.1416 15.7835H18.4356ZM13.4766 14.673C13.4766 14.673 15.1975 14.5466 15.1975 12.5232C15.1975 10.5055 13.79 9.51562 12.003 9.51562H6.125V20.8144H12.0025C12.0025 20.8144 15.593 20.9246 15.593 17.4771C15.5933 17.4771 15.7473 14.673 13.4766 14.673ZM8.71493 11.5224H12.0027C12.0027 11.5224 12.8001 11.5224 12.8001 12.6989C12.8001 13.8754 12.3327 14.046 11.7993 14.046H8.71493V11.5224ZM11.838 18.8077H8.71493V15.7835H12.0027C12.0027 15.7835 13.1961 15.7725 13.1905 17.3394C13.1905 18.6593 12.3054 18.7967 11.838 18.8077ZM17.9463 10.1809V11.5721H22.609V10.1809H17.9463Z" fill="#F1F2F2"/>
</g>
<defs>
<clipPath id="clip0_398_616">
<rect width="30" height="30" fill="white"/>
</clipPath>
</defs>
</svg>
