<svg width="67" height="67" viewBox="0 0 67 67" fill="none" xmlns="http://www.w3.org/2000/svg">
<path d="M57.2293 6.97913H9.771L13.9585 54.4375L33.5002 60.0208L53.0418 54.4375L57.2293 6.97913Z" fill="#0277BD"/>
<path d="M33.5 11.1666V55.6937L49.1333 51.227L52.6229 11.1666H33.5Z" fill="#039BE5"/>
<path d="M46.2021 18.1459H33.5V23.7292H40.3396L39.9208 29.3125H33.5V34.8959H39.6417L39.2229 41.1771L33.5 43.1313V48.9938L44.5271 45.3646L45.5042 29.3125L46.2021 18.1459Z" fill="white"/>
<path d="M33.4999 18.1459V23.7292H21.077L20.6582 18.1459H33.4999ZM27.079 29.3125L27.3582 34.8959H33.4999V29.3125H27.079ZM27.6374 37.6875H22.054L22.4728 45.3646L33.4999 48.9938V43.1313L27.777 41.1771L27.6374 37.6875Z" fill="#EEEEEE"/>
</svg>
