<svg width="57" height="80" viewBox="0 0 57 80" fill="none" xmlns="http://www.w3.org/2000/svg">
<path d="M34.8204 14.7288H34.8156C34.7349 14.7233 34.6551 14.7079 34.5782 14.6832C34.5571 14.6756 34.536 14.6708 34.515 14.6642C32.8832 14.3145 31.2186 14.1384 29.5492 14.1387C16.6139 14.1377 6.12891 24.5438 6.12891 37.3797C6.12891 50.2156 16.6139 60.6255 29.5492 60.6255C42.4845 60.6255 52.9695 50.2194 52.9695 37.3826C52.9695 26.3426 45.2163 17.1044 34.8204 14.7288Z" fill="url(#paint0_radial_575_622)" stroke="#27552F" stroke-miterlimit="10"/>
<path d="M18.8174 57.7595L16.9024 56.6259C16.9024 56.6259 33.0933 37.7959 11.793 22.8248C11.793 22.8248 13.7176 20.5699 14.2203 20.3066C14.2203 20.3066 28.4741 35.7728 45.3564 20.6867C45.3564 20.6867 47.4965 22.7459 47.8862 23.4748C47.8862 23.4748 30.2944 35.4573 43.4634 55.7716C43.4634 55.7716 41.2792 57.3652 40.5314 57.6521C40.5276 57.6559 30.9628 38.9219 18.8174 57.7595Z" fill="#FFFCD3"/>
<path d="M34.8147 14.9268C34.7339 14.9209 34.6541 14.9053 34.5772 14.8802C33.8992 14.657 33.1991 14.5066 32.4888 14.4317C32.4267 14.425 32.3653 14.4135 32.305 14.3975L32.1738 14.388C31.3915 14.3281 30.6092 14.293 29.825 14.293C28.3168 14.293 26.7924 14.3566 25.3102 14.6474C25.2307 14.6781 25.1483 14.7004 25.0641 14.7139L25.0086 14.7225C24.8639 14.7834 24.7066 14.8088 24.5499 14.7966C23.515 15.921 22.9389 17.3874 22.9336 18.9102C22.9336 22.4261 25.9776 25.2825 29.7321 25.2825C33.4866 25.2825 36.5306 22.4318 36.5306 18.9102C36.527 17.4613 36.0051 16.0607 35.0579 14.9581C34.9774 14.9505 34.896 14.9401 34.8147 14.9268Z" fill="#FFFCD3"/>
<path d="M30.9494 46.8445C31.2578 46.5994 31.4359 46.3117 31.3473 46.202C31.2587 46.0922 30.937 46.2018 30.6286 46.4469C30.3203 46.692 30.1421 46.9796 30.2307 47.0894C30.3193 47.1992 30.6411 47.0895 30.9494 46.8445Z" fill="#029643"/>
<path d="M32.8362 29.9909C33.1445 29.7459 33.3226 29.4582 33.234 29.3484C33.1455 29.2387 32.8237 29.3483 32.5153 29.5934C32.207 29.8384 32.0289 30.1261 32.1174 30.2359C32.206 30.3457 32.5278 30.236 32.8362 29.9909Z" fill="#029643"/>
<path d="M31.8615 45.2211C32.1785 44.8724 32.2532 44.4264 32.0282 44.225C31.8032 44.0235 31.3638 44.1429 31.0468 44.4916C30.7297 44.8403 30.655 45.2864 30.88 45.4878C31.105 45.6893 31.5444 45.5699 31.8615 45.2211Z" fill="#029643"/>
<path d="M31.2794 31.8637C31.5965 31.515 31.6712 31.069 31.4462 30.8675C31.2212 30.6661 30.7818 30.7855 30.4647 31.1342C30.1477 31.4829 30.073 31.9289 30.298 32.1304C30.523 32.3318 30.9624 32.2124 31.2794 31.8637Z" fill="#029643"/>
<path d="M30.1093 34.0652C30.3975 33.9724 30.5128 33.535 30.3668 33.0882C30.2208 32.6415 29.8687 32.3545 29.5805 32.4472C29.2923 32.54 29.177 32.9774 29.323 33.4242C29.469 33.871 29.8211 34.158 30.1093 34.0652Z" fill="#029643"/>
<path d="M32.0893 43.0282C32.2923 42.8049 32.172 42.3689 31.8206 42.0542C31.4692 41.7395 31.0198 41.6655 30.8168 41.8887C30.6138 42.112 30.7341 42.548 31.0855 42.8627C31.4369 43.1774 31.8863 43.2515 32.0893 43.0282Z" fill="#029643"/>
<path d="M30.2182 35.7567C30.4212 35.5334 30.3009 35.0974 29.9495 34.7827C29.5981 34.4681 29.1487 34.394 28.9457 34.6172C28.7427 34.8405 28.863 35.2766 29.2144 35.5912C29.5658 35.9059 30.0152 35.98 30.2182 35.7567Z" fill="#029643"/>
<path d="M30.968 38.2184C31.2255 37.9351 31.0562 37.3669 30.5897 36.9492C30.1233 36.5315 29.5364 36.4226 29.2788 36.7059C29.0213 36.9891 29.1906 37.5573 29.6571 37.975C30.1235 38.3927 30.7104 38.5016 30.968 38.2184Z" fill="#029643"/>
<path d="M31.957 41.1C32.2645 40.7618 32.028 40.0527 31.4289 39.5162C30.8297 38.9797 30.0948 38.819 29.7873 39.1572C29.4798 39.4954 29.7162 40.2044 30.3153 40.7409C30.9145 41.2774 31.6495 41.4382 31.957 41.1Z" fill="#029643"/>
<path d="M28.2852 34.2503C28.2852 34.2503 28.8118 32.5722 27.3688 31.6904C26.9764 31.4151 26.6882 31.0173 26.5501 30.5605C26.5501 30.5605 25.4968 31.8909 25.718 33.0255C25.718 33.0255 26.0369 34.7597 28.2852 34.2503Z" fill="#029643"/>
<path d="M29.1166 34.6338C29.1166 34.6338 28.1103 34.2309 27.7617 33.6836L28.8715 34.956L29.1166 34.6338Z" fill="#029643"/>
<path d="M30.9844 39.2354C30.9844 39.2354 31.9898 38.8334 32.3383 38.2852L31.2285 39.5575L30.9844 39.2354Z" fill="#029643"/>
<path d="M28.3249 34.0885L27.2266 32.7344C27.2266 32.7344 27.5196 33.983 28.1056 34.2861L28.2856 34.2491L28.3249 34.0885Z" fill="#52AE6D"/>
<path d="M32.0586 38.5794C32.0586 38.5794 31.532 36.9013 32.975 36.0185C33.3673 35.7432 33.6556 35.3454 33.7937 34.8887C33.7937 34.8887 34.8469 36.2247 34.6257 37.3536C34.6257 37.3527 34.3069 39.0878 32.0586 38.5794Z" fill="#029643"/>
<path d="M32.0195 38.4176L33.1188 37.0645C33.1188 37.0645 32.8248 38.3131 32.2388 38.6153L32.0588 38.5801L32.0195 38.4176Z" fill="#52AE6D"/>
<defs>
<radialGradient id="paint0_radial_575_622" cx="0" cy="0" r="1" gradientUnits="userSpaceOnUse" gradientTransform="translate(29.5492 37.3797) scale(23.4212 23.2429)">
<stop stop-color="#D4DB56"/>
<stop offset="1" stop-color="#84BB4A"/>
</radialGradient>
</defs>
</svg>
