<svg width="67" height="67" viewBox="0 0 67 67" fill="none" xmlns="http://www.w3.org/2000/svg">
<path d="M57.2293 6.97913H9.771L13.9585 54.4375L33.5002 60.0208L53.0418 54.4375L57.2293 6.97913Z" fill="#E65100"/>
<path d="M33.5 11.1666V55.6937L49.1333 51.227L52.6229 11.1666H33.5Z" fill="#FF6D00"/>
<path d="M33.5 34.8959V29.3125H45.5042L44.5271 45.3646L33.5 48.9938V43.1313L39.2229 41.1771L39.6417 34.8959H33.5ZM45.9229 23.7292L46.3417 18.1459H33.5V23.7292H45.9229Z" fill="white"/>
<path d="M33.4999 43.1313V48.9938L22.4729 45.3646L21.9145 37.6875H27.4979L27.777 41.1771L33.4999 43.1313ZM26.6604 23.7292H33.4999V18.1459H20.7979L21.7749 34.8959H33.4999V29.3125H27.0791L26.6604 23.7292Z" fill="#EEEEEE"/>
</svg>
