<svg width="30" height="30" viewBox="0 0 30 30" fill="none" xmlns="http://www.w3.org/2000/svg">
<g clip-path="url(#clip0_401_644)">
<circle cx="15" cy="15" r="15" fill="white"/>
<path d="M18.4433 8.64404H11.5577C11.1751 8.64404 10.7963 8.71938 10.4429 8.86578C10.0894 9.01218 9.76827 9.22676 9.49776 9.49727C9.22725 9.76779 9.01267 10.0889 8.86627 10.4424C8.71987 10.7958 8.64452 11.1746 8.64453 11.5572V18.4428C8.64453 19.2154 8.95145 19.9564 9.49778 20.5027C9.76829 20.7732 10.0894 20.9878 10.4429 21.1342C10.7963 21.2806 11.1751 21.356 11.5577 21.356H18.4433C19.2159 21.3559 19.9569 21.049 20.5032 20.5027C21.0495 19.9564 21.3564 19.2154 21.3564 18.4428V11.5572C21.3564 11.1746 21.2811 10.7958 21.1347 10.4424C20.9883 10.089 20.7737 9.76781 20.5032 9.49729C20.2327 9.22678 19.9115 9.0122 19.5581 8.8658C19.2047 8.71939 18.8258 8.64404 18.4433 8.64404ZM15.0005 19.0073C14.2079 19.0073 13.4332 18.7723 12.7742 18.3319C12.1152 17.8916 11.6015 17.2658 11.2982 16.5335C10.9949 15.8013 10.9156 14.9956 11.0702 14.2182C11.2248 13.4409 11.6065 12.7269 12.1669 12.1664C12.7273 11.606 13.4414 11.2243 14.2187 11.0697C14.996 10.9151 15.8018 10.9944 16.534 11.2978C17.2662 11.6011 17.8921 12.1147 18.3324 12.7737C18.7728 13.4327 19.0078 14.2074 19.0078 15C19.0078 15.5262 18.9041 16.0473 18.7027 16.5335C18.5014 17.0197 18.2062 17.4615 17.8341 17.8336C17.462 18.2057 17.0202 18.5009 16.534 18.7022C16.0478 18.9036 15.5267 19.0073 15.0005 19.0073ZM19.1748 11.8113C18.9863 11.8113 18.8019 11.7554 18.6451 11.6507C18.4883 11.5459 18.3661 11.397 18.294 11.2228C18.2218 11.0486 18.2029 10.8569 18.2397 10.672C18.2765 10.487 18.3673 10.3172 18.5006 10.1838C18.6339 10.0505 18.8038 9.95969 18.9887 9.92289C19.1737 9.8861 19.3654 9.90498 19.5396 9.97714C19.7138 10.0493 19.8627 10.1715 19.9675 10.3283C20.0722 10.4851 20.1281 10.6694 20.1281 10.8579C20.1281 11.1108 20.0277 11.3533 19.8489 11.5321C19.6701 11.7109 19.4277 11.8113 19.1748 11.8113Z" fill="url(#paint0_linear_401_644)"/>
<path d="M14.9993 12.395C14.4841 12.395 13.9805 12.5478 13.5522 12.834C13.1238 13.1202 12.79 13.527 12.5928 14.003C12.3957 14.479 12.3441 15.0027 12.4446 15.508C12.5451 16.0133 12.7932 16.4774 13.1575 16.8417C13.5217 17.206 13.9859 17.454 14.4911 17.5545C14.9964 17.655 15.5202 17.6035 15.9961 17.4063C16.4721 17.2092 16.8789 16.8753 17.1651 16.4469C17.4513 16.0186 17.6041 15.515 17.6041 14.9998C17.6041 14.309 17.3297 13.6464 16.8412 13.1579C16.3527 12.6695 15.6901 12.395 14.9993 12.395Z" fill="url(#paint1_linear_401_644)"/>
<path d="M15 0C6.71572 0 0 6.71572 0 15C0 23.2843 6.71572 30 15 30C23.2843 30 30 23.2843 30 15C30 6.71572 23.2843 0 15 0ZM22.8125 18.3105C22.8124 19.5045 22.3381 20.6496 21.4938 21.4938C20.6496 22.3381 19.5045 22.8124 18.3105 22.8125H11.6895C10.4955 22.8124 9.35041 22.3381 8.50614 21.4938C7.66186 20.6496 7.18752 19.5045 7.18746 18.3105V11.6895C7.18751 10.4955 7.66184 9.3504 8.50612 8.50614C9.3504 7.66187 10.4955 7.18755 11.6895 7.18752H18.3105C19.5045 7.18757 20.6496 7.66189 21.4938 8.50616C22.3381 9.35042 22.8124 10.4955 22.8125 11.6895V18.3105Z" fill="url(#paint2_linear_401_644)"/>
</g>
<defs>
<linearGradient id="paint0_linear_401_644" x1="0.469238" y1="29.5313" x2="29.668" y2="0.33252" gradientUnits="userSpaceOnUse">
<stop stop-color="#FFCB52"/>
<stop offset="0.318" stop-color="#FF6341"/>
<stop offset="0.658" stop-color="#CD39A2"/>
<stop offset="1" stop-color="#515BCA"/>
</linearGradient>
<linearGradient id="paint1_linear_401_644" x1="0.468069" y1="29.5311" x2="29.6668" y2="0.332327" gradientUnits="userSpaceOnUse">
<stop stop-color="#FFCB52"/>
<stop offset="0.318" stop-color="#FF6341"/>
<stop offset="0.658" stop-color="#CD39A2"/>
<stop offset="1" stop-color="#515BCA"/>
</linearGradient>
<linearGradient id="paint2_linear_401_644" x1="0.46875" y1="29.5312" x2="29.6675" y2="0.33252" gradientUnits="userSpaceOnUse">
<stop stop-color="#FFCB52"/>
<stop offset="0.318" stop-color="#FF6341"/>
<stop offset="0.658" stop-color="#CD39A2"/>
<stop offset="1" stop-color="#515BCA"/>
</linearGradient>
<clipPath id="clip0_401_644">
<rect width="30" height="30" fill="white"/>
</clipPath>
</defs>
</svg>
