<svg width="67" height="67" viewBox="0 0 67 67" fill="none" xmlns="http://www.w3.org/2000/svg">
<path d="M8.375 58.625V8.375H58.625V58.625H8.375Z" fill="#FFD600"/>
<path d="M41.2302 45.9886C42.1961 47.5575 43.2457 49.0608 45.4693 49.0608C47.3369 49.0608 48.3168 48.1326 48.3168 46.8484C48.3168 45.3116 47.3034 44.7658 45.2488 43.8711L44.1223 43.3909C40.8714 42.0118 38.7093 40.2838 38.7093 36.6337C38.7093 33.2697 41.2846 30.7098 45.3088 30.7098C48.1744 30.7098 50.2333 31.7022 51.7184 34.3012L48.2093 36.5444C47.4374 35.1653 46.6027 34.6223 45.3088 34.6223C43.9883 34.6223 43.1522 35.4556 43.1522 36.5444C43.1522 37.8899 43.9897 38.4343 45.9229 39.2676L47.0494 39.7478C50.8809 41.3795 53.0417 43.0461 53.0417 46.7926C53.0417 50.8293 49.8536 53.0417 45.574 53.0417C41.3879 53.0417 39.0108 50.941 37.6875 48.3405L41.2302 45.9886ZM25.058 46.103C25.7643 47.3676 26.8377 48.3405 28.3815 48.3405C29.8583 48.3405 30.7084 47.7571 30.7084 45.4889V30.7084H35.3607V46.2035C35.3607 50.9033 32.6346 53.0417 28.6537 53.0417C25.0566 53.0417 22.4604 50.6046 21.4023 48.3405L25.058 46.103Z" fill="#000001"/>
</svg>
