<svg width="30" height="30" viewBox="0 0 30 30" fill="none" xmlns="http://www.w3.org/2000/svg">
<g clip-path="url(#clip0_398_607)">
<path d="M0 15C0 23.2843 6.71569 30 15 30C23.2844 30 30.0001 23.2843 30.0001 15C30.0001 6.71563 23.2844 -6.10352e-05 15 -6.10352e-05C6.71569 -6.10352e-05 0 6.71563 0 15Z" fill="url(#paint0_linear_398_607)"/>
<path d="M10.1523 16.0964L11.932 21.0222C11.932 21.0222 12.1545 21.4829 12.3928 21.4829C12.6312 21.4829 16.1746 17.7965 16.1746 17.7965L20.1153 10.1852L10.2159 14.8251L10.1523 16.0964Z" fill="#C8DAEA"/>
<path d="M12.5117 17.3597L12.17 20.9905C12.17 20.9905 12.027 22.1028 13.1393 20.9905C14.2516 19.8782 15.3162 19.0202 15.3162 19.0202" fill="#A9C6D8"/>
<path d="M10.184 16.2721L6.52357 15.0793C6.52357 15.0793 6.08667 14.902 6.22701 14.4994C6.25599 14.4164 6.31434 14.3459 6.48912 14.224C7.3004 13.6587 21.5024 8.55394 21.5024 8.55394C21.5024 8.55394 21.9034 8.41894 22.1405 8.50869C22.2488 8.54975 22.318 8.59614 22.3762 8.76547C22.3974 8.82712 22.4096 8.95818 22.408 9.0886C22.4067 9.18267 22.3953 9.26975 22.3869 9.4064C22.3004 10.8022 19.7123 21.218 19.7123 21.218C19.7123 21.218 19.5575 21.8276 19.0026 21.8483C18.8002 21.8559 18.5546 21.8149 18.261 21.5623C17.1722 20.6257 13.4086 18.0964 12.5771 17.5402C12.5301 17.509 12.5168 17.4682 12.5088 17.4284C12.4971 17.3699 12.5597 17.2969 12.5597 17.2969C12.5597 17.2969 19.1129 11.4717 19.2873 10.8605C19.3008 10.8131 19.2501 10.7897 19.1813 10.8102C18.7461 10.9703 11.2008 15.7348 10.3682 16.261C10.3195 16.2918 10.1829 16.272 10.1829 16.272" fill="white"/>
</g>
<defs>
<linearGradient id="paint0_linear_398_607" x1="15" y1="29.9999" x2="15" y2="-0.000186247" gradientUnits="userSpaceOnUse">
<stop stop-color="#1D93D2"/>
<stop offset="1" stop-color="#38B0E3"/>
</linearGradient>
<clipPath id="clip0_398_607">
<rect width="30" height="30" fill="white"/>
</clipPath>
</defs>
</svg>
